<svg width="404" height="218" fill="none" xmlns="http://www.w3.org/2000/svg"><path d="M114.452 4.014v136.794h14.895v35.689h-14.895v36.845H62.14v-36.845H0v-35.689L45.18 4.014h69.272zM62.14 140.808V51.72l-23.113 89.088H62.14zm201.454-65.95v69.826c0 15.866-.867 27.414-2.588 34.659-1.721 7.246-5.314 14.01-10.751 20.306-5.438 6.297-12.004 10.82-19.672 13.583-7.682 2.764-16.272 4.138-25.77 4.138-12.514 0-22.921-1.443-31.208-4.33-8.287-2.887-14.895-7.397-19.81-13.515-4.914-6.117-8.411-12.565-10.49-19.329-2.064-6.764-3.111-17.515-3.111-32.253V74.858c0-19.22 1.666-33.614 4.984-43.183 3.317-9.568 9.925-17.24 19.809-23.014C174.871 2.887 186.848 0 200.917 0c11.481 0 21.75 2.007 30.808 6.008 9.059 4.014 15.831 8.895 20.333 14.67 4.488 5.773 7.53 12.276 9.127 19.521 1.611 7.26 2.409 18.808 2.409 34.66zm-52.298-17.584c0-11.122-.536-18.078-1.624-20.883-1.074-2.804-3.607-4.207-7.571-4.207-3.882 0-6.457 1.485-7.709 4.455-1.253 2.97-1.873 9.843-1.873 20.622v102.148c0 12.153.579 19.481 1.749 21.983 1.17 2.502 3.689 3.753 7.571 3.753 3.882 0 6.429-1.471 7.64-4.399 1.212-2.929 1.817-9.528 1.817-19.784V57.274zm177.749-53.26v136.794h14.895v35.689h-14.895v36.845h-52.312v-36.845h-62.14v-35.689L319.774 4.014h69.271zm-52.298 136.794V51.72l-23.113 89.088h23.113z" fill="#C5D7EC"/></svg>