<svg width="404" height="148" fill="none" xmlns="http://www.w3.org/2000/svg"><path d="M154.387 70.494H0v17.571h154.387v-17.57z" fill="#C5D7EC"/><path d="M167.598 120.188h-4.404c-23.713 0-42.934-18.492-42.934-41.306 0-22.813 19.221-41.305 42.934-41.305h4.404v82.611zm56.144-60.369H183.01c-4.844 0-8.807-3.813-8.807-8.473s3.963-8.473 8.807-8.473h40.732c4.844 0 8.807 3.813 8.807 8.473s-3.963 8.473-8.807 8.473zm0 52.955H183.01c-4.844 0-8.807-3.813-8.807-8.473s3.963-8.473 8.807-8.473h40.732c4.844 0 8.807 3.813 8.807 8.473s-3.963 8.473-8.807 8.473zM390.789 0H263.374c-7.266 0-13.211 5.72-13.211 12.71v122.58c0 6.99 5.945 12.709 13.211 12.709h127.415c7.266 0 13.211-5.719 13.211-12.709V12.709C404 5.72 398.055 0 390.789 0zm2.081 126.426c0 5.973-5.086 10.866-11.295 10.866H272.599c-6.22 0-11.295-4.893-11.295-10.866V21.574c0-5.984 5.086-10.866 11.295-10.866h108.976c6.209 0 11.295 4.893 11.295 10.866v104.852z" fill="#C5D7EC"/><path d="M378.493 14.287H275.682c-5.868 0-10.657 4.618-10.657 10.252v98.911c0 5.645 4.8 10.252 10.657 10.252h102.811c5.867 0 10.656-4.618 10.656-10.252v-98.9c0-5.645-4.8-10.263-10.656-10.263zm-84.845 72.539c-7.596 0-13.761-5.931-13.761-13.24 0-7.307 6.165-13.238 13.761-13.238 7.596 0 13.761 5.931 13.761 13.239 0 7.308-6.154 13.239-13.761 13.239zm68.254 0c-7.596 0-13.761-5.931-13.761-13.24 0-7.307 6.165-13.238 13.761-13.238 7.596 0 13.761 5.931 13.761 13.239 0 7.308-6.154 13.239-13.761 13.239z" fill="#C5D7EC"/></svg>