<svg width="16" height="15" fill="none" xmlns="http://www.w3.org/2000/svg"><path d="M16 9.455c0-.466-.274-.868-.671-1.082.253-.226.413-.548.413-.903 0-.683-.58-1.241-1.29-1.241l-1.097.002c-1.017 0-2.645.003-2.648.003-.17-.05-.163-.117-.155-.176.047-.412.42-2.457.488-2.787.196-.956.003-1.866-.537-2.497A2.174 2.174 0 008.86 0c-.129 0-.26.012-.39.037-.299.06-.539.219-.699.464-.31.474-.188 1.085-.142 1.261.24.943-.227 2.467-1.305 3.229-.692.486-1.709 1.22-2.338 2.047h-.888v-.516H0v7.896h3.097v-.496h1.006c.106 0 .493.164.803.256.792.236 1.778.489 2.485.489h6.544c.71 0 1.29-.559 1.29-1.241a1.21 1.21 0 00-.332-.824c.493-.174.849-.628.849-1.162 0-.357-.16-.677-.413-.903.397-.21.671-.615.671-1.082zM2.58 13.922H.517V6.973h2.065v6.95zm11.872-3.226c.425 0 .774.335.774.745 0 .409-.349.744-.774.744h-1.613v.496h1.096c.426 0 .775.335.775.745s-.349.744-.775.744H7.391c-.511 0-1.296-.156-2.333-.466-.113-.035-.245-.082-.372-.127-.289-.104-.433-.154-.583-.154H2.84V7.467h1.406l.155-.141c.614-.807 1.665-1.544 2.227-1.94 1.285-.907 1.78-2.651 1.502-3.748-.064-.25-.083-.63.077-.876a.542.542 0 01.367-.24A1.86 1.86 0 018.86.496c.47 0 .924.216 1.244.591.441.516.596 1.276.431 2.085-.064.312-.446 2.387-.495 2.829-.039.34.157.603.524.707l.072.02h.529l3.288-.003c.425 0 .774.335.774.745s-.349.744-.774.744H12.84v.497h1.87c.427 0 .775.335.775.744 0 .41-.348.745-.774.745H12.84v.496h1.613z" fill="#fff"/></svg>