<svg width="16" height="15" fill="none" xmlns="http://www.w3.org/2000/svg"><path d="M15.12 0H4.09c-.371 0-.671.3-.672.671v3.043l-.504-.757A.78.78 0 001.86 2.72l-1.038.624c-.34.2-.589.523-.695.902C-.251 5.624.03 8 3.516 11.486 6.288 14.253 8.354 15 9.779 15c.33.002.658-.041.976-.127.38-.107.703-.356.903-.695l.623-1.039a.78.78 0 00-.237-1.051L9.559 10.43a.784.784 0 00-1.05.17l-.723.93a.252.252 0 01-.322.069l-.138-.076c-.453-.247-1.017-.554-2.156-1.693a18.693 18.693 0 01-.34-.35h10.29a.67.67 0 00.67-.667V.67c0-.37-.3-.67-.67-.671zM7.073 11.986l.134.074c.336.188.76.1.994-.205l.723-.93a.256.256 0 01.342-.056l2.485 1.656a.254.254 0 01.077.343l-.623 1.038a1 1 0 01-.59.458c-1.244.343-3.422.053-6.727-3.252C.583 7.806.295 5.629.636 4.385a1 1 0 01.458-.59l1.039-.623a.255.255 0 01.342.077l1.657 2.485c.074.111.05.26-.055.342l-.93.724a.775.775 0 00-.206.993l.074.134c.263.483.59 1.083 1.783 2.276 1.193 1.192 1.794 1.52 2.276 1.783zm8.19-3.172a.143.143 0 01-.145.142H4.356a6.638 6.638 0 01-.879-1.28l-.075-.139a.251.251 0 01.068-.321l.93-.724a.784.784 0 00.17-1.05l-.625-.939V.671a.143.143 0 01.144-.145h11.03a.143.143 0 01.145.145v8.143z" fill="#fff"/><path d="M14.213 1.22l-4.4 3.336a.355.355 0 01-.417 0L4.998 1.219a.263.263 0 10-.319.42l4.399 3.336a.886.886 0 001.053 0l4.4-3.336a.263.263 0 10-.318-.42zM7.358 4.997L4.661 7.885a.263.263 0 00.385.359l2.697-2.89a.263.263 0 00-.385-.357zm4.51 0a.263.263 0 10-.385.359l2.696 2.888a.263.263 0 10.385-.36l-2.696-2.887z" fill="#fff"/></svg>