<svg width="180" height="121" fill="none" xmlns="http://www.w3.org/2000/svg"><path d="M119.5 46.387c-4.99-10.79-15.9-18.28-28.57-18.28s-23.58 7.49-28.56 18.28h57.13zm-56.42 27.79c5.26 10.01 15.76 16.85 27.86 16.85s22.59-6.83 27.86-16.85H63.08z" fill="#94268F"/><path d="M50.8 47.707h74.41l-14.35 21.69h30.96v-2.65l9.04 5.7h-48.25l13.07-20.05H46.6l4.2-4.69z" fill="url(#paint0_linear)"/><path d="M61.58 56.407c-1.9-2.53-6.27-2.34-6.47-2.33h-9.25l-4.33 5.32h3.53l-3.26 12.36h7.27c.46-1.67.93-3.34 1.39-5.01.58.1 4.87.8 8.4-1.58.4-.27 2.86-1.98 3.37-4.88.15-.9.42-2.45-.65-3.88zm-8.4 5.81c-.21.08-.51.18-.9.23-.54.07-.98 0-1.24-.06l.91-4.13c.2-.03.48-.05.81 0 .92.15 1.67.82 1.87 1.54.25.9-.33 1.91-1.45 2.42z" fill="url(#paint1_linear)"/><path d="M71.37 65.747l3.03-11.33h-7.3l-4.02 5.02h3.32l-2.92 11.66H75.2l4.71-5.35h-8.54z" fill="url(#paint2_linear)"/><path d="M98.3 54.417h-8.49l-4.21 5.18h2.76l-8.45 11.5h6.76l1.52-2.1h4.97l.35 2.1h7.73l-2.94-16.68zm-8.66 11.95l2.86-4.48.66 4.48h-3.52z" fill="url(#paint3_linear)"/><path d="M135.54 50.897h-8.49l-4.21 5.18h2.76l-8.45 11.51h6.76l1.52-2.1h4.97l.35 2.1h7.73l-2.94-16.69zm-8.66 11.95l2.86-4.48.66 4.48h-3.52z" fill="url(#paint4_linear)"/><path d="M69.89 12.607c3.34-2.16 33.92-21.2 68.83-7.96 26.62 10.09 38.32 32.33 40.98 37.73h-38.47c-1.98-5.49-6.67-15.9-17.25-23.88-22.92-17.28-51.78-6.78-54.09-5.89zm39.92 94.82c-3.34 2.16-33.92 21.2-68.83 7.96-26.62-10.1-38.32-32.33-40.98-37.74h38.47c1.98 5.49 6.67 15.9 17.25 23.88 22.91 17.29 51.78 6.78 54.09 5.9z" fill="#94268F"/><path d="M122.46 45.617c-5.73-11.71-17.2-19.49-29.97-20.24-14.2-.83-27.73 7.16-34.2 20.24h-8.55v-15.42l6.98 5.9 3.93-15.13 5.5 5.9 8.94-11.6 2.36 5.6 12.19-7.87v6.52l15.33-5.83v7.47l14.53.1-3.72 6.39 15.43 4.13-6.41 4.62 12.2 9.22h-14.54zM58.8 75.767c5.73 11.71 17.2 19.49 29.97 20.24 14.2.83 27.73-7.16 34.2-20.24h8.55v15.43l-6.98-5.9-3.93 15.13-5.5-5.9-8.94 11.6-2.36-5.6-12.19 7.86v-6.52l-15.33 5.83v-7.47l-14.53-.1 3.72-6.39-15.43-4.13 6.41-4.62-12.21-9.24H58.8v.02z" fill="#94268F"/><defs><linearGradient id="paint0_linear" x1="46.598" y1="60.078" x2="150.858" y2="60.078" gradientUnits="userSpaceOnUse"><stop stop-color="#5952A3"/><stop offset=".559" stop-color="#454CA0"/><stop offset="1" stop-color="#2E469D"/></linearGradient><linearGradient id="paint1_linear" x1="41.521" y1="62.915" x2="62.37" y2="62.915" gradientUnits="userSpaceOnUse"><stop stop-color="#5952A3"/><stop offset=".559" stop-color="#454CA0"/><stop offset="1" stop-color="#2E469D"/></linearGradient><linearGradient id="paint2_linear" x1="63.079" y1="62.758" x2="79.91" y2="62.758" gradientUnits="userSpaceOnUse"><stop stop-color="#5952A3"/><stop offset=".559" stop-color="#454CA0"/><stop offset="1" stop-color="#2E469D"/></linearGradient><linearGradient id="paint3_linear" x1="79.91" y1="62.758" x2="101.234" y2="62.758" gradientUnits="userSpaceOnUse"><stop stop-color="#5952A3"/><stop offset=".559" stop-color="#454CA0"/><stop offset="1" stop-color="#2E469D"/></linearGradient><linearGradient id="paint4_linear" x1="117.153" y1="59.238" x2="138.477" y2="59.238" gradientUnits="userSpaceOnUse"><stop stop-color="#5952A3"/><stop offset=".559" stop-color="#454CA0"/><stop offset="1" stop-color="#2E469D"/></linearGradient></defs></svg>