<svg width="216" height="145" fill="none" xmlns="http://www.w3.org/2000/svg"><g filter="url(#filter0_i)" fill="#9113AC"><path d="M143.949 56.326c-5.985-12.926-19.035-21.903-34.205-21.903-15.17 0-28.22 8.977-34.205 21.903h68.41zM76.413 89.574c6.317 11.97 18.868 20.157 33.331 20.157 14.464 0 27.056-8.187 33.332-20.157H76.413zM61.74 57.905h89.066L133.6 83.88h37.072v-3.2l10.806 6.816H123.75l15.627-23.98H56.712l5.029-5.611z"/><path d="M74.625 68.295c-2.286-3.034-7.523-2.785-7.73-2.785H55.798l-5.195 6.359h4.239l-3.907 14.796h8.686c.54-1.995 1.123-3.99 1.663-5.985.706.125 5.818.956 10.058-1.912.498-.332 3.408-2.369 4.031-5.86.208-1.039.54-2.868-.748-4.613zm-10.058 6.982c-.25.083-.623.208-1.08.291-.624.083-1.164 0-1.497-.083l1.081-4.946c.25-.041.582-.083.956 0 1.08.166 1.995.956 2.244 1.829.333 1.08-.332 2.286-1.704 2.909zm21.778 4.198l3.616-13.549h-8.728l-4.82 6.026h3.989l-3.491 13.965h14.006l5.652-6.442H86.345zm32.251-13.549h-10.141l-5.029 6.192h3.284l-10.1 13.757h8.105l1.828-2.535h5.944l.415 2.535h9.268l-3.574-19.949zm-10.39 14.297l3.408-5.361.789 5.36h-4.197zm54.943-18.495h-10.14l-5.029 6.193h3.283l-10.099 13.757h8.104l1.829-2.536h5.943l.416 2.536h9.268l-3.575-19.95zm-10.348 14.297l3.408-5.361.789 5.361h-4.197zM84.558 15.887c3.99-2.577 40.605-25.352 82.374-9.518 31.877 12.095 45.841 38.694 49.041 45.177h-46.007c-2.369-6.567-7.98-19.035-20.656-28.594-27.43-20.697-61.967-8.104-64.752-7.065zm47.795 113.461c-3.99 2.576-40.605 25.352-82.374 9.517C18.102 126.812 4.138 100.213.938 93.73h46.049c2.369 6.567 7.98 19.035 20.656 28.594 27.388 20.656 61.967 8.104 64.71 7.024z"/><path d="M147.481 55.411c-6.858-14.006-20.573-23.315-35.867-24.23-16.999-.997-33.207 8.562-40.938 24.23H60.453V36.958l8.354 7.066 4.697-18.121 6.566 7.065 10.723-13.88 2.826 6.69 14.588-9.392v7.813l18.328-6.982v8.935l17.373.125-4.447 7.647 18.453 4.946-7.689 5.528 14.629 11.055h-17.372v-.042zM71.3 91.486c6.857 14.006 20.572 23.316 35.867 24.23 16.998.997 33.207-8.562 40.937-24.23h10.224v18.453l-8.354-7.065-4.696 18.12-6.567-7.065-10.722 13.881-2.826-6.691-14.588 9.393v-7.814l-18.329 6.982v-8.935l-17.372-.125 4.447-7.605-18.453-4.946 7.689-5.528-14.63-11.055H71.3z"/></g><defs><filter id="filter0_i" x=".938" y=".813" width="215.036" height="144.609" filterUnits="userSpaceOnUse" color-interpolation-filters="sRGB"><feFlood flood-opacity="0" result="BackgroundImageFix"/><feBlend in="SourceGraphic" in2="BackgroundImageFix" result="shape"/><feColorMatrix in="SourceAlpha" values="0 0 0 0 0 0 0 0 0 0 0 0 0 0 0 0 0 0 127 0" result="hardAlpha"/><feOffset dy="1"/><feGaussianBlur stdDeviation="1.5"/><feComposite in2="hardAlpha" operator="arithmetic" k2="-1" k3="1"/><feColorMatrix values="0 0 0 0 0 0 0 0 0 0 0 0 0 0 0 0 0 0 0.25 0"/><feBlend in2="shape" result="effect1_innerShadow"/></filter></defs></svg>