<svg width="23" height="20" fill="none" xmlns="http://www.w3.org/2000/svg"><path d="M16.384.56c-1.616 0-3.13.615-4.265 1.723L1.823 12.333a4.1 4.1 0 00-1.25 2.944 4.1 4.1 0 001.25 2.944 4.304 4.304 0 003.015 1.22 4.304 4.304 0 003.016-1.22L18.15 8.17c.47-.46.734-1.064.722-1.713a2.41 2.41 0 00-.722-1.713 2.437 2.437 0 00-1.754-.705 2.54 2.54 0 00-1.755.705l-6.076 5.92.493.482 6.065-5.92a1.79 1.79 0 011.261-.504c.47 0 .918.179 1.261.504a1.7 1.7 0 01.517 1.23c0 .46-.184.896-.517 1.232L7.35 17.739a3.556 3.556 0 01-2.51 1.019 3.536 3.536 0 01-2.512-1.019 3.387 3.387 0 01-1.043-2.45c0-.93.367-1.803 1.043-2.452l10.297-10.05a5.346 5.346 0 013.772-1.522c1.421 0 2.763.537 3.772 1.522a5.092 5.092 0 011.56 3.682 5.11 5.11 0 01-1.56 3.682l-8.576 8.372.504.492 8.576-8.372a5.798 5.798 0 001.766-4.163c0-1.567-.63-3.055-1.766-4.163A6.05 6.05 0 0016.384.56z" stroke="#173152" stroke-miterlimit="10"/></svg>