<svg width="24" height="24" fill="none" xmlns="http://www.w3.org/2000/svg"><g clip-path="url(#clip0)" fill="#173152"><path d="M17.37 23.91c-3.17 0-5.77-2.6-5.76-5.75 0-3.17 2.62-5.75 5.82-5.75 3.13 0 5.68 2.65 5.67 5.89-.01 3.01-2.66 5.62-5.73 5.61zm-.57-5.2l-.2.14c-.44-.5-.86-1.02-1.32-1.51-.29-.31-.54-.29-.81.02-.21.24-.4.49-.6.74-.26.32-.25.62.06.92.8.78 1.59 1.58 2.38 2.36.37.37.56.35.9-.04 1.03-1.2 2.06-2.4 3.1-3.58.92-1.05.93-1.05-.06-2.05-.48-.48-.63-.47-1.07.06-.79.98-1.59 1.96-2.38 2.94zm-4.78 5.2h-.38c-3.28 0-6.56-.01-9.85-.01C.67 23.9 0 23.23 0 22.12L.03 5.13c0-1.17.63-1.8 1.8-1.8.43 0 .99-.11 1.25.11.22.19.09.79.09 1.2.01.97 0 .97-.99.97-.63 0-.67.04-.67.67 0 4.88.01 9.76.01 14.64 0 .62.02.64.64.64 2.59 0 5.17 0 7.76-.01.28 0 .43.08.59.32.47.69.99 1.35 1.51 2.04z"/><path d="M11.49 2.47h1.56c.58.01.89.3.9.88.01.74.01 1.48 0 2.22-.01.58-.31.88-.89.89-2.67 0-5.35 0-8.02-.01-.59 0-.88-.3-.88-.89-.01-.73-.01-1.45 0-2.18.01-.61.3-.89.92-.9.36 0 .73-.03 1.09 0 .35.04.47-.09.53-.43C6.97.46 8.62-.44 10.02.22c.93.43 1.37 1.21 1.47 2.25zm-2.42.88c.55-.01.95-.42.94-.98-.01-.52-.45-.97-.97-.95-.52.01-.98.48-.97.99.01.52.46.95 1 .94zm0 7.27c-1.49 0-2.99-.01-4.48.01-.31 0-.43-.07-.43-.41 0-1.1-.01-1.1 1.08-1.1 2.76 0 5.51 0 8.27-.02.36 0 .47.1.47.46-.01 1.07 0 1.07-1.07 1.07-1.29 0-2.56 0-3.84-.01 0 .01 0 0 0 0zm8.99-.01h-1.45c-.01-.19-.02-.36-.02-.52V6.22c0-.52-.05-.57-.58-.57h-1.07c0-.74-.01-1.42.01-2.1 0-.09.17-.23.26-.24.48-.02.96-.04 1.43 0 .79.06 1.43.71 1.44 1.49.02 1.88.01 3.77.01 5.65.01.05-.01.09-.03.16zM4.18 14.69v-1.4h7.33c-.29.46-.56.92-.84 1.36-.04.06-.17.11-.26.11-2.03 0-4.06-.01-6.09-.01-.03 0-.07-.03-.14-.06zm5.6 2.74v1.46h-5.6v-1.46h5.6z"/></g><defs><clipPath id="clip0"><path fill="#fff" d="M0 0h23.1v23.91H0z"/></clipPath></defs></svg>