<svg width="16" height="16" fill="none" xmlns="http://www.w3.org/2000/svg"><path d="M16 9.5v-3h-2.45a5.8 5.8 0 00-.565-1.365l1.732-1.732-2.122-2.123-1.732 1.733a5.714 5.714 0 00-1.365-.566V0H6.5v2.447a5.8 5.8 0 00-1.365.566L3.403 1.28 1.28 3.402l1.733 1.733c-.245.423-.435.88-.566 1.365H0v3h2.45c.13.482.322.94.565 1.365l-1.733 1.732 2.123 2.12 1.733-1.732c.422.242.88.435 1.365.565V16h3v-2.45a5.8 5.8 0 001.364-.565l1.733 1.732 2.123-2.12-1.733-1.732c.245-.425.435-.88.565-1.365H16zm-2.932-.13c-.118.435-.29.853-.518 1.245l-.19.332.27.27 1.38 1.38-1.415 1.415-1.38-1.377-.27-.27-.332.19c-.393.225-.81.4-1.245.518L9 13.168V15.5H7v-2.333l-.37-.1a5.204 5.204 0 01-1.245-.517l-.332-.19-.27.27-1.38 1.377-1.415-1.415 1.38-1.38.27-.27-.19-.332c-.225-.393-.4-.81-.518-1.245L2.832 9H.5V7h2.332l.1-.37c.118-.435.29-.853.518-1.245l.19-.332-.27-.27-1.38-1.38 1.415-1.415 1.38 1.38.27.27.333-.19c.392-.225.81-.4 1.245-.518l.37-.1V.5h2v2.33l.37.1c.432.117.852.29 1.245.517l.332.19.27-.27 1.38-1.38 1.415 1.415-1.38 1.38-.27.27.19.333c.225.393.4.81.518 1.245l.1.37H15.5v2h-2.333l-.1.37z" fill="#fff"/><path d="M8 6a2 2 0 10-.001 3.999A2 2 0 008 6zm0 3.5a1.501 1.501 0 010-3 1.501 1.501 0 010 3z" fill="#fff"/></svg>