<svg width="23" height="23" fill="none" xmlns="http://www.w3.org/2000/svg"><path d="M17.456 5.778C17.456 2.64 14.793 0 11.506 0c-3.3 0-5.961 2.64-5.961 5.778 0 .828.046 1.524.138 2.12.116 1.094.36 2.31.718 3.215 1.216 3.06 3.554 4.718 5.105 4.718 1.528 0 3.658-1.613 4.896-4.63.301-.728.556-1.667.74-2.584.198-.718.314-1.646.314-2.84z" fill="#173152"/><path d="M23 23c0-1.812-.336-2.607-.972-3.259-1.366-1.392-5.533-.795-6.783-2.176-1.25-1.392-1.03-2.773-.973-3.502H8.728c.058.718.278 2.11-.973 3.502-1.25 1.392-5.428.795-6.783 2.176C.336 20.404 0 21.2 0 23.001h23z" fill="#173152"/></svg>