<svg width="24" height="25" fill="none" xmlns="http://www.w3.org/2000/svg"><path d="M23.17 22.896c0 .01 0 .01 0 0-1.76 1.783-3.634 1.49-3.634 1.49s-5.393-.49-12.219-7.534C.491 9.81.017 4.244.017 4.244S-.267 2.309 1.461.504c.01-.01 0-.01.01-.01.843-.88 2.18-.315 2.18-.315.833.478 1.98 1.413 3.14 2.608 1.158 1.196 2.064 2.38 2.527 3.24 0 0 .285.304-.105 1.64-.158.5-.548.936-.716 1.066a5.38 5.38 0 01-.738.49c-1.053.738.885 3.912 2.023 5.086 1.137 1.174 4.213 3.174 4.93 2.087a5 5 0 01.473-.76c.127-.175.548-.577 1.033-.73 1.295-.412 1.59-.108 1.59-.108.832.478 1.98 1.413 3.14 2.609 1.158 1.195 2.064 2.38 2.527 3.239.01 0 .558 1.37-.305 2.25.01 0 .01 0 0 0z" fill="#173152"/></svg>