<svg width="15" height="15" fill="none" xmlns="http://www.w3.org/2000/svg"><path d="M14.659 1.9L13.096.334A1.164 1.164 0 0012.273 0c-.302 0-.604.115-.823.335L6.818 4.97l-.1-.1a.34.34 0 10-.482.482l3.41 3.412a.34.34 0 00.481 0 .34.34 0 000-.483L7.3 5.452 11.932.817a.48.48 0 01.34-.135c.126 0 .252.045.342.135l1.563 1.565a.486.486 0 010 .682l-3.85 3.853a.34.34 0 10.482.482l3.85-3.853c.22-.22.34-.512.34-.823 0-.311-.12-.604-.34-.824zM8.082 7.936a.34.34 0 00-.482 0L3.368 12.17c-.193.193-.3.45-.3.724v.202L1.08 14.232l-.314-.314 1.136-1.99h.202c.273 0 .53-.106.723-.3L7.06 7.394a.34.34 0 10-.482-.482l-4.232 4.236a.339.339 0 01-.241.1h-.4a.341.341 0 00-.295.171L.045 13.807a.341.341 0 00.055.41l.682.683a.339.339 0 00.41.055l2.386-1.365a.341.341 0 00.172-.296v-.4a.34.34 0 01.1-.24l4.232-4.236a.34.34 0 000-.482z" fill="#fff"/><path d="M12.855 2.136a.34.34 0 00-.482 0l-3.41 3.411a.34.34 0 10.483.482l3.409-3.411a.34.34 0 000-.482z" fill="#fff"/></svg>