<svg width="26" height="26" fill="none" xmlns="http://www.w3.org/2000/svg"><path d="M25.084 12.575a12.603 12.603 0 01-3.674 8.892 12.538 12.538 0 01-8.868 3.683 12.514 12.514 0 01-8.869-3.683A12.577 12.577 0 010 12.575h25.084z" fill="#94268F"/><path d="M12.76 12.24c-.423-.01-.852.167-1.186.53l-4.087 4.48c-.666.73-.697 1.94-.068 2.703.628.762 1.678.789 2.344.059l2.881-3.158 2.72 3.299c.627.762 1.677.789 2.343.059a2.06 2.06 0 00.519-1.34 2.072 2.072 0 00-.45-1.363l-3.858-4.68c-.315-.38-.734-.578-1.158-.588z" fill="#fff"/></svg>