<svg width="26" height="26" fill="none" xmlns="http://www.w3.org/2000/svg"><path d="M25.084 12.575a12.603 12.603 0 01-3.674 8.892 12.538 12.538 0 01-8.868 3.683 12.514 12.514 0 01-8.869-3.683A12.577 12.577 0 010 12.575h25.084z" fill="#94268F"/><path d="M12.654 20.644c.424 0 .848-.188 1.172-.56l3.974-4.581c.647-.746.647-1.957 0-2.704-.647-.746-1.698-.746-2.345 0l-2.8 3.23-2.802-3.23c-.647-.746-1.697-.746-2.345 0a2.062 2.062 0 00-.485 1.352c0 .489.163.978.485 1.352l3.974 4.581c.324.372.748.56 1.172.56z" fill="#fff"/></svg>